{"title":"Quantico.s02e02.720p.hdtv.x265-killers[GreatIndiaRipper]","uid":16007196,"size":198293714,"categoryP":"video","categoryS":"hd___tv_shows","magnet":"?xt=urn:btih:003fbe8d79f9c5d16dd19edd780d8b70ce9705c6&amp;dn=Quantico.s02e02.720p.hdtv.x265-killers%5BGreatIndiaRipper%5D&amp;tr=udp%3A%2F%2Ftracker.leechers-paradise.org%3A6969&amp;tr=udp%3A%2F%2Fzer0day.ch%3A1337&amp;tr=udp%3A%2F%2Fopen.demonii.com%3A1337&amp;tr=udp%3A%2F%2Ftracker.coppersurfer.tk%3A6969&amp;tr=udp%3A%2F%2Fexodus.desync.com%3A6969","seeders":0,"leechers":3,"uploader":"greatindiaripper","files":3,"time":1476196556,"description":"General\r\n\r\nFormat                      : Matroska\r\nFormat version              : Version 4 / Version 2\r\nFile size                   : 187 MiB\r\nDuration                    : 42 min\r\nOverall bit rate            : 613 kb/s\r\nMovie name                  : Quantico.s02e02.720p.hdtv.x265-killers[GreatIndiaRipper]\r\n\r\n\r\nVideo\r\nID                          : 1\r\nFormat                      : HEVC\r\nFormat/Info                 : High Efficiency Video Coding\r\nFormat profile              :   @Main\r\nCodec ID                    : V_MPEGH/ISO/HEVC\r\nDuration                    : 42 min\r\nBit rate                    : 451 kb/s\r\nWidth                       : 1 280 pixels\r\nHeight                      : 716 pixels\r\nDisplay aspect ratio        : 16:9\r\nFrame rate mode             : Constant\r\nFrame rate                  : 23.976 (24000/1001) FPS\r\nColor space                 : YUV\r\nChroma subsampling          : 4:2:0\r\nBit depth                   : 8 bits\r\nBits/(Pixel*Frame)          : 0.021\r\nStream size                 : 138 MiB (74%)\r\nTitle                       : Quantico.s02e02.720p.hdtv.x265-killers[GreatIndiaRipper]\r\n\r\n\r\nAudio\r\nID                          : 2\r\nFormat                      : AAC\r\nFormat/Info                 : Advanced Audio Codec\r\nFormat profile              : LC\r\nCodec ID                    : A_AAC\r\nDuration                    : 42 min\r\nBit rate                    : 160 kb/s\r\nChannel(s)                  : 2 channels\r\nChannel positions           : Front: L R\r\nSampling rate               : 48.0 kHz\r\nFrame rate                  : 46.875 FPS (1024 spf)\r\nCompression mode            : Lossy\r\nStream size                 : 48.9 MiB (26%)\r\nTitle                       : Quantico.s02e02.720p.hdtv.x265-killers[GreatIndiaRipper]\r\nDefault                     : Yes\r\nForced                      : No","torrent":{"xt":"urn:btih:003fbe8d79f9c5d16dd19edd780d8b70ce9705c6","amp;dn":"Quantico.s02e02.720p.hdtv.x265-killers%5BGreatIndiaRipper%5D","amp;tr":["udp%3A%2F%2Ftracker.leechers-paradise.org%3A6969","udp%3A%2F%2Fzer0day.ch%3A1337","udp%3A%2F%2Fopen.demonii.com%3A1337","udp%3A%2F%2Ftracker.coppersurfer.tk%3A6969","udp%3A%2F%2Fexodus.desync.com%3A6969"],"infoHash":"003fbe8d79f9c5d16dd19edd780d8b70ce9705c6","infoHashBuffer":{"type":"Buffer","data":[0,63,190,141,121,249,197,209,109,209,158,221,120,13,139,112,206,151,5,198]},"announce":[],"urlList":[]}}